# xmcd
#
# Track frame offsets:
#	150
#	17221
#	33645
#	51119
#	67508
#	85968
#	103408
#	118750
#	134756
#	151877
#	170953
#	191109
#
# Disc length: 2791 seconds
#
# Revision: 2
# Processed by: cddbd v1.5.2PL0 Copyright (c) Steve Scherf et al.
# Submitted via: EasyCDDAExtractor 15.3.0.1
#
DISCID=ae0ae50c
DTITLE=Thalia - Amore Mio
DYEAR=2014
DGENRE=Latin
TTITLE0=Amore Mio
TTITLE1=Por Lo Que Reste De Vida
TTITLE2=Mas
TTITLE3=Cerveza En Mexico
TTITLE4=Lo Mas Bonito De Ti
TTITLE5=Contigo Quiero Estar
TTITLE6=Comete Mi Boca
TTITLE7=Tranquila (Featuring Fat Joe)
TTITLE8=Tu Y Yo
TTITLE9=Como Tu No Hay Dos (Featuring Becky G)
TTITLE10=Solo Parecia Amor
TTITLE11=Olvidame
EXTD=
EXTT0=
EXTT1=
EXTT2=
EXTT3=
EXTT4=
EXTT5=
EXTT6=
EXTT7=
EXTT8=
EXTT9=
EXTT10=
EXTT11=
PLAYORDER=
